<svg xmlns="http://www.w3.org/2000/svg" xmlns:xlink="http://www.w3.org/1999/xlink" viewBox="0 0 27 3" version="1.1">
    <path d="M25.3193359,2.4921875 C25.3694661,2.4921875 25.398112,2.48860677 25.4052734,2.48144531 L25.4052734,2.48144531 L25.5234375,2.48144531 C25.5664062,2.48144531 25.5986328,2.47786458 25.6201172,2.47070312 L25.6201172,2.47070312 L25.6523438,2.47070312 C25.7526042,2.44205729 25.8027344,2.40625 25.8027344,2.36328125 L25.8027344,2.36328125 L25.8027344,2.35253906 C25.8528646,2.3453776 25.8779297,2.30957031 25.8779297,2.24511719 C25.8850911,2.23795573 25.8922526,2.22721354 25.8994141,2.21289062 L25.8994141,2.21289062 L25.9208984,2.15917969 L25.9208984,2.1484375 L25.9316406,2.13769531 C25.9388021,2.13053385 25.9423828,2.1233724 25.9423828,2.11621094 C25.9495443,2.11621094 25.953125,2.11263021 25.953125,2.10546875 C25.9817708,2.09114583 25.9996745,2.07324219 26.0068359,2.05175781 C26.0068359,2.04459635 26.0104167,2.04101562 26.0175781,2.04101562 L26.0175781,2.04101562 L26.0283203,2.03027344 C26.0426432,2.02311198 26.0498047,2.01236979 26.0498047,1.99804688 L26.0498047,1.99804688 L26.0498047,1.95507812 L26.1572266,1.85839844 C26.2073568,1.82259115 26.2395833,1.79036458 26.2539062,1.76171875 C26.2610677,1.74739583 26.2646484,1.72949219 26.2646484,1.70800781 C26.2646484,1.68652344 26.257487,1.66503906 26.2431641,1.64355469 C26.2216797,1.62207031 26.2001953,1.60416667 26.1787109,1.58984375 C26.1429036,1.56835938 26.125,1.546875 26.125,1.52539062 C26.125,1.51106771 26.1285807,1.49674479 26.1357422,1.48242188 L26.1357422,1.48242188 L26.1679688,1.43945312 C26.1751302,1.42513021 26.1858724,1.41080729 26.2001953,1.39648437 C26.2216797,1.38216146 26.2395833,1.36425781 26.2539062,1.34277344 L26.2539062,1.34277344 L26.2539062,1.33203125 C26.3183594,1.31054688 26.3541667,1.2639974 26.3613281,1.19238281 L26.3613281,1.19238281 L26.3613281,1.18164062 L26.3720703,1.16015625 C26.3649089,1.15299479 26.3541667,1.14941406 26.3398438,1.14941406 C26.3255208,1.12792969 26.296875,1.11002604 26.2539062,1.09570312 C26.203776,1.08138021 26.1608073,1.07421875 26.125,1.07421875 C26.0104167,1.05989583 25.9280599,1.04557292 25.8779297,1.03125 C25.8779297,1.02408854 25.8671875,1.02050781 25.8457031,1.02050781 L25.8457031,1.02050781 L25.8027344,1.02050781 C25.8027344,1.01334635 25.7955729,1.00976562 25.78125,1.00976562 C25.7382812,1.00260417 25.6774089,0.995442708 25.5986328,0.98828125 C25.5198568,0.981119792 25.4589844,0.977539062 25.4160156,0.977539062 L25.4160156,0.977539062 L25.2763672,0.956054688 C25.2620443,0.956054688 25.2369792,0.952473958 25.2011719,0.9453125 L25.2011719,0.9453125 L25.1474609,0.9453125 L25.1044922,0.934570312 C25.0830078,0.934570312 25.0472005,0.930989583 24.9970703,0.923828125 L24.9970703,0.923828125 L24.8789062,0.90234375 C24.8717448,0.895182292 24.8466797,0.891601562 24.8037109,0.891601562 L24.8037109,0.891601562 L24.7607422,0.891601562 L24.7177734,0.880859375 C24.6748047,0.873697917 24.6282552,0.866536458 24.578125,0.859375 L24.578125,0.859375 L24.4169922,0.837890625 L24.3632812,0.837890625 L24.3525391,0.827148438 L24.3310547,0.827148438 C24.3238932,0.819986979 24.2988281,0.81640625 24.2558594,0.81640625 L24.2558594,0.81640625 L24.2021484,0.805664062 L24.1376953,0.805664062 L24.1054688,0.794921875 L24.0732422,0.794921875 C24.0517578,0.787760417 24.0302734,0.784179688 24.0087891,0.784179688 C24.0016276,0.777018229 23.9765625,0.7734375 23.9335938,0.7734375 L23.9335938,0.7734375 L23.8798828,0.7734375 L23.7939453,0.751953125 L23.7294922,0.751953125 C23.7080078,0.744791667 23.6722005,0.737630208 23.6220703,0.73046875 L23.6220703,0.73046875 L23.5576172,0.73046875 L23.4931641,0.719726562 C23.4716797,0.712565104 23.4287109,0.705403646 23.3642578,0.698242187 L23.3642578,0.698242187 L23.1816406,0.698242187 C23.1673177,0.683919271 23.1279297,0.673177083 23.0634766,0.666015625 C23.0348307,0.658854167 23.0097656,0.655273438 22.9882812,0.655273438 C22.9667969,0.655273438 22.9488932,0.658854167 22.9345703,0.666015625 L22.9345703,0.666015625 L22.8808594,0.666015625 C22.8736979,0.658854167 22.8486328,0.651692708 22.8056641,0.64453125 L22.8056641,0.64453125 L22.7089844,0.64453125 C22.6946615,0.637369792 22.6660156,0.630208333 22.6230469,0.623046875 L22.6230469,0.623046875 L22.4941406,0.623046875 C22.4798177,0.623046875 22.4726562,0.626627604 22.4726562,0.633789062 L22.4726562,0.633789062 L22.34375,0.623046875 C22.3151042,0.608723958 22.2685547,0.6015625 22.2041016,0.6015625 C22.132487,0.594401042 22.0859375,0.590820312 22.0644531,0.590820312 C22.0429688,0.590820312 22.0286458,0.594401042 22.0214844,0.6015625 L22.0214844,0.6015625 L21.8925781,0.590820312 C21.8710938,0.583658854 21.8317057,0.576497396 21.7744141,0.569335938 L21.7744141,0.569335938 L21.6669922,0.569335938 C21.6455078,0.569335938 21.6311849,0.572916667 21.6240234,0.580078125 L21.6240234,0.580078125 L21.5595703,0.580078125 L21.5166016,0.569335938 L21.484375,0.569335938 C21.4700521,0.562174479 21.4378255,0.55859375 21.3876953,0.55859375 C21.3662109,0.551432292 21.3483073,0.547851562 21.3339844,0.547851562 C21.3196615,0.547851562 21.3089193,0.551432292 21.3017578,0.55859375 L21.3017578,0.55859375 L21.1835938,0.55859375 C21.1621094,0.551432292 21.1263021,0.547851562 21.0761719,0.547851562 C21.047526,0.540690104 21.0260417,0.537109375 21.0117188,0.537109375 C20.9902344,0.537109375 20.9759115,0.540690104 20.96875,0.547851562 C20.9186198,0.540690104 20.8684896,0.537109375 20.8183594,0.537109375 L20.8183594,0.537109375 L20.7216797,0.537109375 C20.7073568,0.529947917 20.6930339,0.526367188 20.6787109,0.526367188 C20.664388,0.526367188 20.6536458,0.529947917 20.6464844,0.537109375 L20.6464844,0.537109375 L20.5927734,0.537109375 L20.5390625,0.526367188 L20.3349609,0.526367188 C20.3134766,0.519205729 20.2776693,0.515625 20.2275391,0.515625 C20.1988932,0.508463542 20.1774089,0.504882812 20.1630859,0.504882812 C20.1416016,0.504882812 20.1272786,0.508463542 20.1201172,0.515625 L20.1201172,0.515625 L19.9482422,0.515625 L19.8623047,0.504882812 C19.8336589,0.497721354 19.805013,0.494140625 19.7763672,0.494140625 C19.7548828,0.494140625 19.7369792,0.497721354 19.7226562,0.504882812 L19.7226562,0.504882812 L19.6796875,0.504882812 L19.6367188,0.494140625 C19.6009115,0.494140625 19.5794271,0.497721354 19.5722656,0.504882812 L19.5722656,0.504882812 L19.3896484,0.494140625 C19.3681641,0.486979167 19.328776,0.479817708 19.2714844,0.47265625 L19.2714844,0.47265625 L19.1425781,0.47265625 C19.0924479,0.465494792 19.0279948,0.461914062 18.9492188,0.461914062 C18.8561198,0.454752604 18.7845052,0.451171875 18.734375,0.451171875 L18.734375,0.451171875 L18.6914062,0.451171875 L18.6914062,0.440429688 L18.6806641,0.440429688 C18.2366536,0.404622396 17.7246094,0.372395833 17.1445312,0.34375 L17.1445312,0.34375 L17.0048828,0.34375 C16.9475911,0.336588542 16.8723958,0.329427083 16.7792969,0.322265625 L16.7792969,0.322265625 L16.5214844,0.311523438 C16.2923177,0.304361979 16.1240234,0.297200521 16.0166016,0.290039062 L16.0166016,0.290039062 L15.984375,0.279296875 C15.9628906,0.272135417 15.9235026,0.268554688 15.8662109,0.268554688 L15.8662109,0.268554688 L15.7158203,0.268554688 C15.6656901,0.254231771 15.5904948,0.243489583 15.4902344,0.236328125 L15.4902344,0.236328125 L15.3613281,0.236328125 L15.2431641,0.225585938 L15.2216797,0.225585938 C15.1787109,0.211263021 15.1070964,0.204101562 15.0068359,0.204101562 L15.0068359,0.204101562 L14.9746094,0.204101562 C14.9029948,0.182617187 14.7705078,0.168294271 14.5771484,0.161132812 L14.5771484,0.161132812 L14.4589844,0.161132812 C14.4160156,0.153971354 14.3837891,0.150390625 14.3623047,0.150390625 C14.2477214,0.136067708 14.0830078,0.125325521 13.8681641,0.118164062 L13.8681641,0.118164062 L13.8359375,0.118164062 C13.8001302,0.111002604 13.7428385,0.103841146 13.6640625,0.0966796875 L13.6640625,0.0966796875 L13.4169922,0.0966796875 L11.4082031,0.0107421875 C11.0143229,0.00358072917 10.6634115,0 10.3554688,0 L10.3554688,0 L9.90429688,0 C8.421875,0.04296875 6.78190104,0.0930989583 4.984375,0.150390625 C4.84114583,0.157552083 4.68359375,0.161132812 4.51171875,0.161132812 L4.51171875,0.161132812 L4.04980469,0.150390625 L3.67382812,0.150390625 C3.44466146,0.150390625 3.24772135,0.153971354 3.08300781,0.161132812 L3.08300781,0.161132812 L2.93261719,0.161132812 C2.86816406,0.168294271 2.82519531,0.175455729 2.80371094,0.182617187 L2.80371094,0.182617187 L2.78222656,0.182617187 C2.6031901,0.189778646 2.33463542,0.211263021 1.9765625,0.247070312 C1.69010417,0.275716146 1.42154948,0.304361979 1.17089844,0.333007812 C1.02766927,0.347330729 0.913085938,0.365234375 0.827148438,0.38671875 C0.798502604,0.393880208 0.766276042,0.408203125 0.73046875,0.4296875 L0.73046875,0.4296875 L0.633789062,0.483398438 L0.526367188,0.515625 C0.490559896,0.529947917 0.465494792,0.537109375 0.451171875,0.537109375 C0.444010417,0.544270833 0.433268229,0.555013021 0.418945312,0.569335938 L0.418945312,0.569335938 L0.375976562,0.612304688 C0.354492188,0.626627604 0.322265625,0.640950521 0.279296875,0.655273438 L0.279296875,0.655273438 L0.161132812,0.708984375 C0.0751953125,0.751953125 0.0322265625,0.784179688 0.0322265625,0.805664062 L0.0322265625,0.805664062 L0.0322265625,0.81640625 L0.04296875,0.827148438 L0.021484375,0.837890625 C0.0143229167,0.845052083 0.00716145833,0.848632812 0,0.848632812 L0,0.848632812 L0,0.859375 C0,0.873697917 0.00358072917,0.884440104 0.0107421875,0.891601562 L0.0107421875,0.891601562 L0.04296875,0.923828125 C0.0572916667,0.9453125 0.0680338542,0.973958333 0.0751953125,1.00976562 L0.0751953125,1.00976562 L0.0537109375,1.13867188 L0.0537109375,1.19238281 L0.064453125,1.25683594 C0.064453125,1.29980469 0.0716145833,1.33561198 0.0859375,1.36425781 C0.121744792,1.41438802 0.139648438,1.4609375 0.139648438,1.50390625 C0.139648438,1.51822917 0.136067708,1.53255208 0.12890625,1.546875 C0.114583333,1.58984375 0.103841146,1.63639323 0.0966796875,1.68652344 L0.0966796875,1.68652344 L0.0966796875,1.77246094 C0.0966796875,1.84407552 0.125325521,1.89420573 0.182617188,1.92285156 L0.182617188,1.92285156 L0.365234375,1.98730469 C0.372395833,1.98730469 0.383138021,1.99088542 0.397460938,1.99804688 L0.397460938,1.99804688 L0.451171875,2.01953125 C0.494140625,2.04101562 0.519205729,2.05175781 0.526367188,2.05175781 L0.526367188,2.05175781 L0.537109375,2.05175781 L0.537109375,2.0625 C0.572916667,2.09830729 0.626627604,2.11621094 0.698242188,2.11621094 L0.698242188,2.11621094 L0.73046875,2.11621094 C0.759114583,2.10904948 0.780598958,2.10546875 0.794921875,2.10546875 C0.809244792,2.10546875 0.819986979,2.10904948 0.827148438,2.11621094 L0.827148438,2.11621094 L0.913085938,2.11621094 C0.956054688,2.10904948 0.981119792,2.10188802 0.98828125,2.09472656 C1.00976562,2.09472656 1.02050781,2.09114583 1.02050781,2.08398438 L1.02050781,2.08398438 L1.05273438,2.08398438 L1.21386719,2.0625 L1.35351562,2.0625 L1.39648438,2.05175781 L1.51464844,2.05175781 C1.56477865,2.04459635 1.6077474,2.04101562 1.64355469,2.04101562 L1.64355469,2.04101562 L1.68652344,2.03027344 C1.68652344,2.0374349 1.6936849,2.04101562 1.70800781,2.04101562 C1.78678385,2.04101562 1.90494792,2.03027344 2.0625,2.00878906 L2.0625,2.00878906 L2.21289062,2.00878906 C2.26302083,2.0016276 2.2952474,1.99446615 2.30957031,1.98730469 L2.30957031,1.98730469 L2.48144531,1.96582031 L2.54589844,1.96582031 L2.61035156,1.95507812 C2.66048177,1.95507812 2.69270833,1.9514974 2.70703125,1.94433594 L2.70703125,1.94433594 L2.72851562,1.94433594 L2.79296875,1.93359375 L2.85742188,1.93359375 C2.91471354,1.92643229 2.95052083,1.91927083 2.96484375,1.91210938 L2.96484375,1.91210938 L3.04003906,1.91210938 L3.09375,1.90136719 C3.13671875,1.90136719 3.16536458,1.89778646 3.1796875,1.890625 L3.1796875,1.890625 L3.22265625,1.890625 C3.23697917,1.890625 3.24414062,1.88704427 3.24414062,1.87988281 L3.24414062,1.87988281 L3.28710938,1.86914062 L3.3515625,1.86914062 C3.40169271,1.86197917 3.43391927,1.85481771 3.44824219,1.84765625 L3.44824219,1.84765625 L3.54492188,1.83691406 L3.66308594,1.83691406 L3.73828125,1.81542969 C3.76692708,1.81542969 3.78841146,1.81184896 3.80273438,1.8046875 L3.80273438,1.8046875 L3.82421875,1.8046875 C3.96028646,1.78320312 4.06054688,1.76529948 4.125,1.75097656 L4.125,1.75097656 L4.14648438,1.75097656 L4.26464844,1.74023438 L4.27539062,1.74023438 L4.3828125,1.71875 C4.61914062,1.70442708 4.88411458,1.6936849 5.17773438,1.68652344 L5.17773438,1.68652344 L5.57519531,1.67578125 L6.015625,1.67578125 C6.03710938,1.67578125 6.05501302,1.66861979 6.06933594,1.65429688 L6.06933594,1.65429688 L6.09082031,1.64355469 L6.76757813,1.64355469 L7.37988281,1.6328125 C7.85253906,1.6328125 8.25358073,1.64355469 8.58300781,1.66503906 L8.58300781,1.66503906 L8.86230469,1.66503906 C8.88378906,1.67220052 8.91959635,1.67578125 8.96972656,1.67578125 L8.96972656,1.67578125 L9.08789062,1.67578125 L9.29199219,1.68652344 L9.42089844,1.68652344 C9.44238281,1.6936849 9.48177083,1.69726562 9.5390625,1.69726562 L9.5390625,1.69726562 L9.73242188,1.69726562 C9.74674479,1.70442708 9.77897135,1.70800781 9.82910156,1.70800781 L9.82910156,1.70800781 L10.1083984,1.70800781 L10.1621094,1.71875 L10.5058594,1.71875 C10.5130208,1.71158854 10.5273438,1.70800781 10.5488281,1.70800781 L10.5488281,1.70800781 L10.8603516,1.70800781 L10.9785156,1.69726562 L11.1503906,1.69726562 C11.1933594,1.69726562 11.2255859,1.6936849 11.2470703,1.68652344 L11.2470703,1.68652344 L11.2792969,1.68652344 L12.0097656,1.70800781 C12.3177083,1.71516927 12.5540365,1.71875 12.71875,1.71875 L12.71875,1.71875 L12.7724609,1.71875 C12.7724609,1.72591146 12.7832031,1.72949219 12.8046875,1.72949219 L12.8046875,1.72949219 L12.8583984,1.72949219 C12.8727214,1.73665365 12.9049479,1.74023438 12.9550781,1.74023438 L12.9550781,1.74023438 L13.0839844,1.74023438 L13.1162109,1.75097656 C13.4671224,1.77246094 13.7965495,1.78320312 14.1044922,1.78320312 L14.1044922,1.78320312 L14.4267578,1.78320312 L14.4804687,1.79394531 L14.5664062,1.79394531 C14.5735677,1.80110677 14.6022135,1.8046875 14.6523438,1.8046875 L14.6523438,1.8046875 L14.7597656,1.8046875 C14.7740885,1.8046875 14.7991536,1.80826823 14.8349609,1.81542969 L14.8349609,1.81542969 L14.9746094,1.81542969 C14.9746094,1.80826823 14.9567057,1.8046875 14.9208984,1.8046875 L14.9208984,1.8046875 L15.0712891,1.8046875 L15.1572266,1.81542969 C15.1858724,1.81542969 15.2073568,1.81184896 15.2216797,1.8046875 L15.2216797,1.8046875 L15.296875,1.81542969 C15.3255208,1.81542969 15.3434245,1.81184896 15.3505859,1.8046875 L15.3505859,1.8046875 L15.8769531,1.8046875 C15.891276,1.79752604 15.9020182,1.79394531 15.9091797,1.79394531 C15.9235026,1.79394531 15.9342448,1.79752604 15.9414063,1.8046875 L15.9414063,1.8046875 L15.9414063,1.79394531 L16.2421875,1.79394531 L16.328125,1.8046875 L16.7041016,1.81542969 L16.7148438,1.82617188 C16.7363281,1.82617188 16.7721354,1.8297526 16.8222656,1.83691406 L16.8222656,1.83691406 L16.8759766,1.83691406 L16.9296875,1.84765625 L17.0478516,1.84765625 C17.0478516,1.85481771 17.0621745,1.85839844 17.0908203,1.85839844 L17.0908203,1.85839844 L17.1337891,1.85839844 L17.1552734,1.86914062 C17.1767578,1.87630208 17.2089844,1.87988281 17.2519531,1.87988281 L17.2519531,1.87988281 L17.3164062,1.890625 L17.3701172,1.890625 L17.3916016,1.90136719 C17.4202474,1.90852865 17.4775391,1.9156901 17.5634766,1.92285156 L17.5634766,1.92285156 L17.6171875,1.92285156 C17.781901,1.94433594 17.9931641,1.96582031 18.2509766,1.98730469 C18.3011068,1.99446615 18.3798828,2.0016276 18.4873047,2.00878906 L18.4873047,2.00878906 L18.6699219,2.03027344 C18.7486979,2.0374349 18.8059896,2.04459635 18.8417969,2.05175781 L18.8417969,2.05175781 L18.9599609,2.07324219 L19.0566406,2.07324219 L19.1318359,2.08398438 L19.2070312,2.08398438 C19.2643229,2.08398438 19.3037109,2.0875651 19.3251953,2.09472656 L19.3251953,2.09472656 L19.4970703,2.09472656 L19.8085938,2.11621094 C19.8945312,2.1233724 19.9625651,2.12695312 20.0126953,2.12695312 L20.0126953,2.12695312 L20.109375,2.12695312 C20.109375,2.13411458 20.1272786,2.13769531 20.1630859,2.13769531 L20.1630859,2.13769531 L20.2060547,2.1484375 L20.2382812,2.1484375 C20.5104167,2.17708333 20.8004557,2.19856771 21.1083984,2.21289062 L21.1083984,2.21289062 L21.1621094,2.21289062 L21.2158203,2.22363281 L21.3232422,2.22363281 L21.3662109,2.234375 L21.4306641,2.234375 C21.4664714,2.24153646 21.5201823,2.24869792 21.5917969,2.25585938 L21.5917969,2.25585938 L21.7421875,2.25585938 L21.8818359,2.26660156 L21.9248047,2.26660156 L21.9785156,2.27734375 L22.0966797,2.27734375 L22.1503906,2.28808594 L22.2685547,2.28808594 L22.5800781,2.30957031 C22.7018229,2.32389323 22.7949219,2.33105469 22.859375,2.33105469 L22.859375,2.33105469 L22.859375,2.3203125 L23.1279297,2.3203125 C23.1494141,2.33463542 23.1888021,2.34179688 23.2460938,2.34179688 L23.2460938,2.34179688 L23.3535156,2.34179688 L23.8261719,2.38476562 L23.8691406,2.38476562 C23.8834635,2.39192708 23.9192708,2.39550781 23.9765625,2.39550781 L23.9765625,2.39550781 L24.0410156,2.40625 L24.1054688,2.40625 L24.1914062,2.41699219 C24.2415365,2.4313151 24.313151,2.44205729 24.40625,2.44921875 C24.4921875,2.45638021 24.5638021,2.45996094 24.6210938,2.45996094 C24.6282552,2.45996094 24.6318359,2.45638021 24.6318359,2.44921875 L24.6318359,2.44921875 L24.6855469,2.45996094 L24.8251953,2.45996094 C24.882487,2.4671224 24.9469401,2.47070312 25.0185547,2.47070312 L25.0185547,2.47070312 L25.1152344,2.47070312 L25.2119141,2.48144531 L25.265625,2.48144531 L25.3193359,2.4921875 Z" fill="#21EAF4" fill-rule="nonzero"/>
</svg>